<?xml version="1.0" standalone="no"?><!DOCTYPE svg PUBLIC "-//W3C//DTD SVG 1.1//EN" "http://www.w3.org/Graphics/SVG/1.1/DTD/svg11.dtd"><svg t="1775545051223" class="icon" viewBox="0 0 1024 1024" version="1.1" xmlns="http://www.w3.org/2000/svg" p-id="5045" xmlns:xlink="http://www.w3.org/1999/xlink" width="200" height="200"><path d="M42.642286 689.298286V219.940571c0-70.656 57.344-128 128-128h682.715428c70.656 0 128 57.344 128 128v469.357715a128 128 0 0 1-128 128H170.642286a128 128 0 0 1-128-128z m64 0c0 17.700571 6.290286 32.768 18.797714 45.275428q18.724571 18.724571 45.202286 18.724572h682.715428a61.659429 61.659429 0 0 0 45.202286-18.724572 61.659429 61.659429 0 0 0 18.797714-45.275428V219.940571q0-26.477714-18.797714-45.202285a61.659429 61.659429 0 0 0-45.202286-18.797715H170.642286a61.659429 61.659429 0 0 0-45.202286 18.797715 61.659429 61.659429 0 0 0-18.797714 45.202285v469.357715z m668.086857-234.642286l-105.325714 105.325714-0.292572 0.365715a32.036571 32.036571 0 0 0 45.494857 44.909714l128-128a31.963429 31.963429 0 0 0 0-45.275429l-128-128a31.963429 31.963429 0 0 0-45.202285 45.348572l105.325714 105.325714zM363.958857 349.257143l-105.325714 105.325714 105.325714 105.398857a31.963429 31.963429 0 0 1-45.275428 45.348572l-128-128a32.036571 32.036571 0 0 1 0-45.348572l128-128a31.963429 31.963429 0 0 1 45.568 44.982857l-0.292572 0.292572z m75.849143-10.24l106.642286 256a31.963429 31.963429 0 0 0 61.586285-12.434286v-0.512a31.963429 31.963429 0 0 0-2.486857-11.702857l-106.642285-256a32.036571 32.036571 0 0 0-59.099429 24.576z m-318.902857 564.809143c0-17.627429 14.336-31.963429 32.036571-31.963429h718.116572a31.963429 31.963429 0 1 1 0 64H152.941714a32.036571 32.036571 0 0 1-32.036571-32.036571z" p-id="5046"></path></svg>