<?xml version="1.0" standalone="no"?><!DOCTYPE svg PUBLIC "-//W3C//DTD SVG 1.1//EN" "http://www.w3.org/Graphics/SVG/1.1/DTD/svg11.dtd"><svg t="1777451282664" class="icon" viewBox="0 0 1024 1024" version="1.1" xmlns="http://www.w3.org/2000/svg" p-id="11423" xmlns:xlink="http://www.w3.org/1999/xlink" width="200" height="200"><path d="M725.75 54c17.673 0 32 14.327 32 32v53.299L939 139.3c17.496 0 31.713 14.042 31.996 31.47l0.004 0.53v682.4c0 17.673-14.327 32-32 32H757.75V939c0 17.496-14.042 31.713-31.47 31.996l-0.53 0.004h-426.5c-17.673 0-32-14.327-32-32v-53.3H86c-17.496 0-31.713-14.042-31.996-31.47L54 853.7V171.3c0-17.673 14.327-32 32-32l181.25-0.001V86c0-17.496 14.042-31.713 31.47-31.996l0.53-0.004z m181.249 149.3H757.75v618.4h149.249V203.3z m-639.749 0H118v618.4h149.25V203.3z" p-id="11424"></path></svg>