<?xml version="1.0" standalone="no"?><!DOCTYPE svg PUBLIC "-//W3C//DTD SVG 1.1//EN" "http://www.w3.org/Graphics/SVG/1.1/DTD/svg11.dtd"><svg t="1777451224615" class="icon" viewBox="0 0 1024 1024" version="1.1" xmlns="http://www.w3.org/2000/svg" p-id="8524" xmlns:xlink="http://www.w3.org/1999/xlink" width="200" height="200"><path d="M511.6 102.2C285.3 102.2 102 285.5 102 511.8c0 226.2 183.4 409.6 409.6 409.6 226.2 0 409.6-183.4 409.6-409.6 0-226.3-183.4-409.6-409.6-409.6z m0 755.2C320.7 857.4 166 702.6 166 511.8s154.7-345.6 345.6-345.6 345.6 154.7 345.6 345.6-154.8 345.6-345.6 345.6z m0 0" p-id="8525"></path><path d="M586.6 412c0-7-1.6-14.1-5.3-21.1-3.4-7.1-8.2-13.4-13.9-19.1-5.7-5.6-12.7-10.2-20.9-13.7-8.2-3.6-16.8-5.4-26.1-5.4-16.4 0-29.6 4-39.8 12-10.1 8-18.2 18.4-24.2 31.4-5.9 12.9-10.1 27.4-12.6 43.4-2.4 16-3.8 31.6-4.3 47.2h2c22.9-23.5 47.7-35.3 74.5-35.3 17.1 0 33.2 3.3 48.5 9.9 15.1 6.6 28.2 15.8 39.1 27.6 11.1 11.6 19.8 25.8 26.2 42.2 6.4 16.5 9.4 34.3 9.4 53.5 0 18-2.9 35-8.6 51-5.6 16-13.8 29.8-24.4 41.8-10.6 12-23.4 21.6-38.6 28.7-15.1 6.9-32.1 10.4-51.1 10.4-20.3 0-38.6-4.1-55.2-12.7-16.4-8.4-30.4-20.5-41.8-36.2-11.5-15.9-20.3-35-26.7-57.5-6.4-22.5-9.6-48.1-9.6-76.8 0-41 3.2-75.8 9.6-104.8 6.4-28.8 15.6-52.2 27.4-70.1 12-17.8 26.3-30.9 43-39.1 16.8-8.2 35.4-12.4 56.2-12.4 16.3 0 31.5 2.9 45.4 8.8 13.9 5.9 25.9 13.8 35.7 23.6 9.8 9.9 17.9 21.2 23.9 33.8 5.8 12.7 9.2 25.7 10.2 38.8l-48 0.1z m-70 258.9c23.7 0 41.4-8.3 52.8-24.4 11.6-16.4 17.3-36.4 17.3-60.4 0-11.7-1.4-22.8-4.2-33.5-2.9-10.5-7.4-19.9-13.4-28.1-5.8-8.2-13.1-14.8-21.8-19.8-8.6-5-18.6-7.4-30.1-7.4-14.1 0-26 2.8-35.6 8.4-9.8 5.6-17.6 12.8-23.6 21.6-5.8 8.6-10.1 18.2-12.6 28.5-2.3 10.4-3.6 20.4-3.6 30.4 0 25.5 6.8 45.9 20.5 61.5 13.6 15.3 31.7 23.2 54.3 23.2z m0 0" p-id="8526"></path></svg>