<?xml version="1.0" standalone="no"?><!DOCTYPE svg PUBLIC "-//W3C//DTD SVG 1.1//EN" "http://www.w3.org/Graphics/SVG/1.1/DTD/svg11.dtd"><svg t="1777451202217" class="icon" viewBox="0 0 1024 1024" version="1.1" xmlns="http://www.w3.org/2000/svg" p-id="7956" xmlns:xlink="http://www.w3.org/1999/xlink" width="200" height="200"><path d="M511.6 102.2C285.3 102.2 102 285.5 102 511.8c0 226.2 183.4 409.6 409.6 409.6 226.2 0 409.6-183.4 409.6-409.6 0-226.3-183.4-409.6-409.6-409.6z m0 755.2C320.7 857.4 166 702.6 166 511.8s154.7-345.6 345.6-345.6 345.6 154.7 345.6 345.6-154.8 345.6-345.6 345.6z m0 0" p-id="7957"></path><path d="M395.1 524.3L419.5 307H618v46.4H456.1l-10.9 112.2 2 0.8c9.3-9 20.3-15.4 33-19.3 12.6-3.8 25.2-5.8 37.6-5.8 17.6 0 33.8 3.6 48.8 10.8 14.8 7.1 27.8 16.8 38.5 29.3 10.8 12.4 19.3 27 25.4 44 6.1 16.8 9.1 34.8 9.1 54 0 17.6-2.7 34.5-8.1 51.2-5.6 16.4-13.9 30.9-24.6 44-10.8 12.8-24.5 22.9-41.1 30.5-16.6 7.6-36.1 11.5-58.4 11.5-31.3 0-58.2-9.9-80.8-29.3-22.8-19.6-37.1-48.3-43.1-85.9h52c4.7 21.5 13.5 38.4 26.6 50.4 13.1 12 28.3 18.3 45.8 18.3 12 0 22.9-2.4 32.7-7.2 10-4.8 18.3-11.2 25.5-19.2 6.9-8.3 12.5-18 16.3-29.5 3.9-11.3 5.8-23.6 5.8-36.4 0-13.3-2.2-25.4-7-36.4-4.9-10.9-11-20.4-19-28.2-7.9-7.8-17-14-27.2-18.6-10.3-4.4-20.8-6.8-31.5-6.8-12 0-23.6 2.9-34.7 8.6-11.1 5.8-20.5 15-28.2 28h-45.5z m0 0" p-id="7958"></path></svg>