<?xml version="1.0" standalone="no"?><!DOCTYPE svg PUBLIC "-//W3C//DTD SVG 1.1//EN" "http://www.w3.org/Graphics/SVG/1.1/DTD/svg11.dtd"><svg t="1777451257309" class="icon" viewBox="0 0 1024 1024" version="1.1" xmlns="http://www.w3.org/2000/svg" p-id="9514" xmlns:xlink="http://www.w3.org/1999/xlink" width="200" height="200"><path d="M512 85.333333C277.333333 85.333333 85.333333 277.333333 85.333333 512s192 426.666667 426.666667 426.666667 426.666667-192 426.666667-426.666667S746.666667 85.333333 512 85.333333z m151.466667 588.8l-174.08-107.093333c-12.8-7.68-20.48-21.333333-20.48-36.266667V330.666667a32.853333 32.853333 0 0 1 32.426666-32c17.493333 0 32 14.506667 32 32v189.866666l163.84 98.56c15.36 9.386667 20.48 29.44 11.093334 44.8-9.386667 14.933333-29.44 19.626667-44.8 10.24z" p-id="9515"></path></svg>