<?xml version="1.0" standalone="no"?><!DOCTYPE svg PUBLIC "-//W3C//DTD SVG 1.1//EN" "http://www.w3.org/Graphics/SVG/1.1/DTD/svg11.dtd"><svg t="1787035299053" class="icon" viewBox="0 0 1024 1024" version="1.1" xmlns="http://www.w3.org/2000/svg" p-id="8506" xmlns:xlink="http://www.w3.org/1999/xlink" width="200" height="200"><path d="M472.565666 0.014525h22.665664c0 0.530149 0 2.106069 0.530149 2.106069 4.742287 1.053035 9.484575 1.583183 14.234124 3.166366 2.106069 0.522886 4.735025 1.575921 6.318208 2.636218 2.106069 0 4.212139-0.530149 5.795322 0 11.067758 2.628956 21.082481 7.371243 30.04417 14.749749 7.901391 6.855619 16.86308 12.128055 22.658402 21.612629 2.636218 4.212139 5.272436 8.424278 8.43154 12.120793 4.212139 4.742287 8.961688 8.954426 12.650941 14.234124 9.484575 13.166565 16.340194 28.453724 25.29462 42.1577 6.318208 10.007461 10.537609 20.552333 15.287159 31.620091 4.212139 10.537609 7.901391 21.075219 12.120792 31.62009 5.265174 12.120793 11.590644 24.241585 16.86308 36.892526 5.272436 11.590644 10.014723 22.658402 14.757011 34.249047 5.795322 14.757011 11.590644 28.991135 16.86308 43.748145 8.961688 23.711437 17.916115 46.899987 26.347655 70.618686 2.636218 6.848357 3.689253 13.703976 5.802584 20.552333 1.575921 4.742287 3.159104 9.484575 5.795322 13.173827 1.053035 1.583183 6.318208 0.530149 9.484575 0.530149h1.053034c7.908654 0.522886 15.810045 1.053035 23.188551 2.106069a112.565779 112.565779 0 0 1 17.923377 4.742287c2.106069 1.053035 3.68199 5.272436 4.212139 7.908654 0.530149 4.212139-1.583183 8.424278-1.053035 12.643679 0.522886 13.703976 1.583183 27.930838 2.636218 41.634814 1.053035 15.287159 2.636218 30.574318 3.689253 45.854214 1.053035 17.916115 2.106069 35.832229 2.636217 53.755607 0.522886 10.007461 0 20.552333 0.522887 30.559793 0.530149 8.438802 1.583183 16.340194 1.583183 24.771734 0 13.173827-0.530149 26.354917-0.530149 39.528744 0 12.120793 0 24.241585 0.530149 36.362378 0.522886 14.757011 1.053035 28.983873 1.583183 43.740883 1.053035 18.976412 3.159104 37.422675 4.742287 56.391824 0.522886 6.848357 0.522886 13.703976 1.575921 20.552333 2.106069 15.287159 4.212139 31.097204 6.325471 46.377101 1.053035 10.014723 1.583183 20.552333 2.636218 30.574318 2.636218 18.969149 5.795322 38.468447 8.43154 57.437597 0 1.053035 1.583183 2.106069 2.636218 2.636218v7.378505c-1.053035 3.689253-2.636218 6.848357-3.689253 10.537609-8.43154 2.636218-16.86308 5.795322-25.824768 7.908654-7.901391 2.106069-16.340194 3.689253-24.241586 5.795322-12.128055 3.159104-24.241585 7.378505-36.362377 11.067758-12.650941 3.159104-25.29462 6.318208-38.47571 8.961689-7.901391 1.575921-16.340194 2.106069-24.241585 2.106069-9.484575 0.522886-18.969149 0-28.453724 0.522886-8.961688 0.530149-17.393228 1.583183-26.354917 2.10607-13.173827 1.060297-26.870541 1.583183-40.051631 2.64348-10.014723 0.522886-20.029446 2.106069-30.036907 2.106069-20.552333 0.522886-41.634814 0.522886-62.194409 1.053035-14.749748 0.522886-30.036907 0-44.263769 4.212139-1.583183 0.530149-3.689253 1.060297-5.272436 1.060297-15.810045 0-32.150239 0-47.960284 0.522886-25.29462 0.530149-50.066354 2.106069-75.360974 2.636218-20.552333 0-41.104665-0.530149-61.134111-1.583183-6.318208 0-12.120793 0.530149-18.446263-4.212139-4.742287-3.689253-7.901391-7.378505-10.53761-12.128055-0.530149-1.575921 0-4.212139-1.053034-5.265174-6.855619-7.908654-6.855619-17.916115-8.43154-27.407951-2.636218-16.86308-4.742287-33.72616-6.855619-50.58924-1.575921-9.484575-3.159104-18.446263-4.212139-27.930838-1.583183-14.234124-1.583183-28.460986-2.636218-43.210735-1.583183-21.61263-3.159104-43.217997-4.742288-65.360775-0.530149-6.848357-1.583183-13.696714-2.636217-20.552332v-11.590644c0.530149-2.106069 1.053035-3.689253 1.053034-5.795322 0.530149-13.703976 0.530149-27.407952 1.053035-41.104665 0.530149-16.340194 1.583183-32.680388 2.636218-49.020582 0.530149-10.530347 0.530149-20.552333 1.053035-31.082679 0.530149-16.870342 0.530149-34.263571 0.530148-51.126651 0-21.605367-0.530149-43.210735 0-64.823364 0.522886-11.590644-1.053035-23.188551 0.522886-34.786457 1.060297-9.484575-0.522886-19.492036-0.522886-28.97661 0-4.219401 5.265174-10.544872 9.484575-11.597907 6.848357-1.583183 14.234124-2.106069 21.082481-4.212139 3.159104-0.530149 6.318208-1.060297 7.901391-5.802584 5.802584-17.916115 12.128055-35.839492 18.446264-53.755606 3.166366-10.014723 6.855619-19.499298 10.014723-29.514021 5.272436-15.279897 10.014723-30.036907 15.279896-45.316804 0.530149-1.060297 1.060297-2.106069 1.060297-2.636218 3.689253-10.021986 6.848357-20.029446 10.53761-30.04417 5.272436-14.757011 11.067758-28.983873 16.340194-43.210735 4.212139-11.597906 7.901391-23.188551 12.120792-34.786457 3.689253-9.484575 7.378505-18.969149 10.53761-28.983872 5.795322-17.916115 10.537609-35.839492 17.393228-53.23272 4.212139-11.590644 10.014723-23.181288 16.340194-34.249046 7.371243-12.128055 14.749748-24.248848 25.29462-34.786457 6.318208-6.318208 12.120793-13.703976 20.022184-17.393229 12.650941-6.318208 26.354917-10.537609 40.05163-14.75701C459.399101 2.120594 466.247457 1.067559 472.572928 0.014525z m291.443696 424.242266c0.530149-0.522886 1.053035-1.575921 1.053034-2.10607-5.795322 0-11.590644 0.530149-17.393228 0-10.530347-0.522886-20.552333-2.106069-30.559794-2.106069-20.029446-0.530149-39.528744 0-59.550928 0-5.802584 0-12.128055 0.522886-17.923377 0.522886-9.484575 0.530149-18.969149 2.106069-28.460986 2.636218-11.067758 0.530149-22.658402 0-33.72616 0.530148-15.287159 1.053035-30.036907 2.636218-45.316804 3.689253-13.18109 1.053035-26.362179 1.053035-39.536007 2.636218-13.696714 1.575921-27.400689 4.742287-41.627551 5.795322-22.658402 2.106069-45.854215 2.636218-68.512617 4.212139-11.597906 0.530149-22.658402 1.060297-34.256309 2.636218-16.86308 1.583183-33.203274 4.212139-50.066353 6.32547-13.173827 1.583183-26.877803 2.636218-40.051631 3.689253-8.43154 1.053035-17.393228 1.583183-25.824768 3.159104-3.689253 0.530149-6.325471 3.166366-6.325471 7.908654 0.530149 13.173827 0.530149 26.347655 1.053035 39.528744 0.530149 21.605367 1.053035 42.687848 1.053035 64.293216 0.530149 17.393228 0.530149 35.309343 1.053034 52.702572 0 4.742287-0.522886 10.014723-0.522886 14.75701 1.053035 11.067758 0.522886 22.135516 0 33.72616-0.530149 10.537609-2.106069 21.082481-2.106069 31.62009a2479.272181 2479.272181 0 0 0 0 88.542064c0.522886 20.552333 3.159104 41.104665 4.742287 61.656997 2.628956 26.347655 4.742287 52.702572 7.901392 79.050227 2.106069 20.029446 5.795322 39.528744 8.961688 59.028042 5.795322 1.053035 11.067758 2.106069 16.340194 2.636218 11.590644 0.522886 22.658402 0 34.249046 0 10.021986 0 20.029446 0 30.04417-1.053035 16.340194-1.060297 33.203274-3.166366 49.536205-3.166366 30.574318-1.053035 61.134112 0.530149 91.701167-2.10607 20.552333-2.106069 40.581779-2.106069 61.134112-2.636218 17.393228-0.522886 34.786457 0 52.172423 0 11.597906 0 23.188551-0.522886 35.309343-1.053034 7.908654-0.530149 16.340194-1.053035 24.241585-2.10607 8.43154-0.530149 16.870342-1.053035 25.301882-2.636218 11.067758-1.583183 21.605367-4.212139 32.142977-5.795322 10.021986-1.583183 20.029446-1.583183 30.04417-4.212139 11.590644-2.64348 22.658402-6.855619 34.256308-8.96895 8.954426-1.575921 17.385966-4.742287 25.29462-7.901392 4.212139-1.583183 10.014723-1.583183 9.484575-8.961688-1.053035-21.082481-1.583183-42.1577-2.636218-63.240181 0-3.159104-0.522886-6.318208-1.053035-9.484575-3.159104-21.605367-7.901391-43.740883-10.014723-65.353513-2.628956-24.764471-3.159104-49.536205-4.212139-74.307939-0.530149-13.703976-1.583183-27.400689-2.106069-41.104665-1.060297-27.930838-2.636218-55.861676-3.689253-83.792513-1.060297-27.9381-1.060297-56.391824-2.636218-84.322663-1.053035-16.870342-4.742287-33.733422-6.855619-50.596502-1.575921-11.067758-1.575921-22.658402-2.628956-33.72616 0-3.166366 0.522886-6.855619 0.522887-10.544871z m-88.011915-35.83223c-5.265174-16.340194-10.537609-32.150239-15.810045-48.490432-5.272436-15.279897-11.067758-30.036907-16.86308-44.793918a427.415895 427.415895 0 0 0-11.597907-27.40069c-8.424278-20.029446-16.340194-40.058893-25.29462-59.550928-8.954426-20.552333-17.393228-41.104665-30.036907-59.550928-5.272436-8.438802-8.961688-17.923377-13.703976-26.36218-4.212139-7.371243-8.961688-14.749748-13.173827-22.128253-3.689253-7.378505-10.544872-12.128055-14.757011-18.969149-6.318208-10.544872-15.810045-19.50656-26.877803-25.824769-9.484575-5.272436-20.029446-8.43154-31.097204-6.32547-7.901391 1.053035-14.749748 5.272436-21.605367 10.014723-11.590644 8.424278-21.605367 17.916115-28.460987 31.089942-4.212139 7.908654-8.424278 15.287159-12.643679 23.18855-4.742287 8.961688-9.484575 17.393228-13.173827 26.354917-6.325471 15.279897-12.128055 31.089942-17.923377 46.377101-3.689253 9.484575-7.378505 18.446263-11.067758 27.930838-3.159104 8.424278-5.795322 16.86308-8.954426 25.29462-3.689253 9.484575-7.908654 18.969149-11.067758 28.460986a1296.757776 1296.757776 0 0 0-18.976412 59.550929c-4.212139 14.234124-12.643679 27.400689-15.279896 42.687848-1.053035 5.795322-4.212139 11.067758-6.325471 16.340194-3.159104 8.954426-6.318208 17.916115-9.484575 26.347655-1.053035 2.636218-2.106069 5.272436-3.166366 8.961688 3.166366 0 5.272436 0 6.325471-0.530148 6.855619-5.272436 15.810045-4.212139 23.18855-5.795322 8.961688-2.106069 18.446263-2.106069 27.407952-2.636218 6.848357-0.530149 13.703976-1.583183 20.022184-2.10607 14.757011-0.530149 28.991135-0.530149 43.740883-0.530148 5.802584 0 12.128055-1.583183 17.923377-2.10607 8.424278-1.053035 17.393228-1.583183 25.824768-2.636218 9.484575-1.053035 18.969149-2.636218 28.976611-3.689252 9.491837-1.053035 18.976412-3.159104 28.468248-3.689253 10.530347-0.530149 21.605367 0 32.142977-0.530148 9.484575-0.522886 18.976412-1.575921 28.460986-2.10607 19.499298-1.053035 39.528744-2.636218 59.028043-3.689253 12.120793-1.583183 23.711437-2.106069 35.832229-3.159104z" fill="#40354E" p-id="8507"></path></svg>